<?xml version="1.0" standalone="no"?>
<!DOCTYPE svg PUBLIC "-//W3C//DTD SVG 20010904//EN"
 "http://www.w3.org/TR/2001/REC-SVG-20010904/DTD/svg10.dtd">
<svg version="1.0" xmlns="http://www.w3.org/2000/svg"
 width="980.000000pt" height="992.000000pt" viewBox="0 0 980.000000 992.000000"
 preserveAspectRatio="xMidYMid meet">

<g transform="translate(0.000000,992.000000) scale(0.100000,-0.100000)"
fill="#000000" stroke="none">
<path d="M4096 9299 l-749 -619 -938 0 -939 0 0 -778 0 -778 -610 -504 c-335
-277 -610 -506 -610 -510 0 -9 123 -114 620 -526 655 -544 1178 -974 1184
-974 3 0 6 427 6 948 0 522 3 1307 7 1745 l6 797 2779 0 2778 0 1 -1052 c1
-579 5 -1364 8 -1745 l6 -692 600 496 c809 668 1173 971 1180 984 14 21 -169
181 -847 743 l-348 287 0 780 0 779 -944 0 -943 0 -309 256 c-674 558 -1147
950 -1168 965 -20 16 -40 1 -770 -602z"/>
<path d="M4615 7590 c-198 -23 -490 -120 -675 -225 -435 -245 -746 -637 -919
-1155 -90 -268 -116 -459 -108 -797 5 -262 24 -395 82 -569 41 -123 126 -306
187 -404 276 -440 742 -721 1343 -809 110 -16 380 -41 444 -41 7 0 11 58 11
175 0 96 -1 175 -3 175 -43 0 -381 46 -471 65 -527 106 -886 360 -1091 772
-110 221 -154 467 -141 788 15 393 108 703 294 981 238 355 574 574 1031 672
117 25 143 26 371 26 277 0 364 -11 536 -69 125 -41 294 -126 394 -196 98 -69
272 -245 334 -338 100 -151 167 -346 187 -548 42 -413 -169 -877 -502 -1103
-97 -67 -185 -104 -256 -108 -58 -4 -64 -2 -93 26 -37 37 -37 46 -4 214 22
114 244 1172 290 1385 9 40 13 77 9 82 -12 20 -291 91 -355 91 -37 0 -49 -23
-75 -145 -10 -44 -19 -82 -21 -84 -2 -2 -42 33 -89 78 -102 96 -150 130 -249
177 -256 122 -602 51 -877 -180 -175 -146 -335 -393 -428 -658 -106 -304 -87
-691 48 -963 131 -264 342 -408 621 -422 87 -5 120 -2 190 16 111 27 226 86
325 167 44 36 92 71 107 79 25 14 28 14 38 -4 5 -11 10 -29 10 -39 0 -28 68
-115 121 -156 78 -60 214 -85 365 -67 184 22 333 75 464 165 95 65 369 336
448 443 86 117 194 345 239 504 16 56 18 106 18 399 l0 335 -43 125 c-81 239
-199 442 -360 619 -233 257 -617 458 -967 507 -130 18 -658 27 -780 14z m276
-1190 c127 -24 251 -112 306 -217 51 -95 64 -155 70 -308 8 -216 -26 -383
-117 -570 -170 -349 -512 -545 -752 -431 -112 53 -210 191 -244 343 -22 102
-15 341 15 459 81 326 250 578 452 678 106 52 175 64 270 46z"/>
<path d="M9685 5668 c-369 -293 -2905 -2390 -3109 -2570 l-40 -35 40 -35 c180
-163 1826 -1534 2669 -2224 519 -425 524 -429 538 -415 16 16 18 5324 2 5340
-7 7 -39 -12 -100 -61z"/>
<path d="M5 5063 c-9 -677 0 -4533 11 -4575 l6 -28 42 32 c262 204 2599 2141
2999 2487 95 81 98 85 79 100 -10 9 -208 174 -438 366 -931 780 -2671 2215
-2685 2215 -4 0 -10 -269 -14 -597z"/>
<path d="M5685 2374 c-707 -588 -828 -682 -862 -670 -6 3 -128 101 -270 219
-539 447 -980 797 -1002 797 -19 0 -739 -591 -2861 -2345 l-435 -360 855 -6
c1107 -8 6374 -8 7475 0 l851 6 -266 220 c-1526 1265 -3032 2506 -3041 2505
-2 -1 -202 -165 -444 -366z"/>
</g>
</svg>
