<?xml version="1.0" encoding="UTF-8" standalone="no"?><!DOCTYPE svg PUBLIC "-//W3C//DTD SVG 1.1//EN" "http://www.w3.org/Graphics/SVG/1.1/DTD/svg11.dtd"><svg width="100%" height="100%" viewBox="0 0 807 97" version="1.1" xmlns="http://www.w3.org/2000/svg" xmlns:xlink="http://www.w3.org/1999/xlink" xml:space="preserve" style="fill-rule:evenodd;clip-rule:evenodd;stroke-linejoin:round;stroke-miterlimit:2;"><g><path d="M30.417,22.708c6.944,0 11.892,2.014 14.843,6.042c2.952,4.028 4.427,8.993 4.427,14.896l0,31.458l-15.312,0l0,-30.937c0,-2.778 -0.712,-4.914 -2.135,-6.407c-1.424,-1.493 -3.421,-2.239 -5.99,-2.239c-1.736,-0 -3.594,0.451 -5.573,1.354c-1.979,0.903 -3.802,1.91 -5.469,3.021l0,35.208l-15.208,0l0,-72.396l15.208,-1.145l0,25.833c2.153,-1.458 4.636,-2.604 7.448,-3.438c2.813,-0.833 5.4,-1.25 7.761,-1.25Z" style="fill:#ff0;fill-rule:nonzero;"/><path d="M80.208,77.083c-6.944,0 -11.857,-2.014 -14.739,-6.041c-2.882,-4.028 -4.323,-8.959 -4.323,-14.792l-0,-31.667l15.416,0l0,31.042c0,2.778 0.678,4.913 2.032,6.406c1.354,1.493 3.281,2.24 5.781,2.24c1.597,-0 3.351,-0.399 5.26,-1.198c1.91,-0.799 3.664,-1.719 5.261,-2.76l-0,-35.73l15.312,0l0,50.521l-7.916,0l-3.855,-4.791c-2.222,1.875 -5.017,3.472 -8.385,4.791c-3.368,1.32 -6.649,1.979 -9.844,1.979Z" style="fill:#ff0;fill-rule:nonzero;"/><path d="M185.833,22.708c6.806,0 11.667,1.997 14.584,5.99c2.916,3.993 4.375,8.941 4.375,14.844l-0,31.562l-15.417,0l0,-30.937c0,-2.778 -0.677,-4.914 -2.031,-6.407c-1.354,-1.493 -3.247,-2.239 -5.677,-2.239c-1.667,-0 -3.473,0.451 -5.417,1.354c-1.944,0.903 -3.75,1.91 -5.417,3.021c0.07,0.625 0.139,1.232 0.209,1.823c0.069,0.59 0.104,1.198 0.104,1.823l-0,31.562l-15.417,0l0,-30.937c0,-2.778 -0.677,-4.914 -2.031,-6.407c-1.354,-1.493 -3.212,-2.239 -5.573,-2.239c-1.528,-0 -3.142,0.364 -4.844,1.094c-1.701,0.729 -3.35,1.545 -4.948,2.448l0,36.041l-15.312,0l-0,-50.521l7.916,0l3.542,4.584c2.222,-1.806 4.948,-3.334 8.177,-4.584c3.229,-1.25 6.406,-1.875 9.531,-1.875c3.75,0 6.875,0.643 9.375,1.927c2.5,1.285 4.514,3.039 6.042,5.261c2.153,-2.014 4.931,-3.715 8.333,-5.104c3.403,-1.389 6.702,-2.084 9.896,-2.084Z" style="fill:#ff0;fill-rule:nonzero;"/><path d="M233.333,64.063c1.598,-0 3.23,-0.365 4.896,-1.094c1.667,-0.729 3.264,-1.788 4.792,-3.177l-0,-6.354l-8.75,-0c-2.014,-0 -3.577,0.59 -4.688,1.77c-1.111,1.181 -1.666,2.57 -1.666,4.167c-0,1.25 0.521,2.344 1.562,3.281c1.042,0.938 2.327,1.407 3.854,1.407Zm3.334,-40.938c6.319,0 11.51,1.806 15.573,5.417c4.062,3.611 6.093,8.264 6.093,13.958l0,32.604l-7.5,0l-3.333,-4.166c-1.736,1.527 -3.872,2.812 -6.406,3.854c-2.535,1.041 -5.122,1.562 -7.761,1.562c-6.25,0 -10.885,-1.545 -13.906,-4.635c-3.021,-3.091 -4.531,-7.136 -4.531,-12.136c-0,-5.277 1.788,-9.27 5.364,-11.979c3.577,-2.708 8.247,-4.062 14.011,-4.062l8.646,-0c-0.139,-2.153 -0.886,-3.854 -2.24,-5.104c-1.354,-1.25 -3.142,-1.875 -5.364,-1.875c-2.153,-0 -4.549,0.312 -7.188,0.937c-2.639,0.625 -4.931,1.389 -6.875,2.292l-4.062,-12.084c2.152,-1.25 5.243,-2.326 9.27,-3.229c4.028,-0.903 7.431,-1.354 10.209,-1.354Z" style="fill:#ff0;fill-rule:nonzero;"/><path d="M300.938,22.708c6.944,0 11.892,1.997 14.843,5.99c2.952,3.993 4.427,8.941 4.427,14.844l0,31.562l-15.312,0l-0,-30.937c-0,-2.778 -0.712,-4.914 -2.136,-6.407c-1.423,-1.493 -3.385,-2.239 -5.885,-2.239c-1.667,-0 -3.524,0.434 -5.573,1.302c-2.049,0.868 -3.906,1.858 -5.573,2.969l0,35.312l-15.312,0l-0,-50.521l7.916,0l4.063,5.105c2.222,-1.945 5.069,-3.594 8.542,-4.948c3.472,-1.355 6.805,-2.032 10,-2.032Z" style="fill:#ff0;fill-rule:nonzero;"/><path d="M348.646,9.063c-0,2.361 -0.851,4.357 -2.552,5.989c-1.702,1.632 -3.733,2.448 -6.094,2.448c-2.361,0 -4.34,-0.816 -5.937,-2.448c-1.598,-1.632 -2.396,-3.628 -2.396,-5.989c-0,-2.362 0.798,-4.375 2.396,-6.042c1.597,-1.667 3.576,-2.5 5.937,-2.5c2.361,-0 4.392,0.833 6.094,2.5c1.701,1.667 2.552,3.68 2.552,6.042Zm-0.938,15.52l0,50.521l-15.312,0l-0,-50.521l15.312,0Z" style="fill:#ff0;fill-rule:nonzero;"/><circle cx="340.104" cy="8.75" r="8.75" style="fill:#00f;"/><path d="M383.75,76.875c-6.25,-0 -11.406,-1.597 -15.469,-4.792c-4.062,-3.194 -6.093,-7.882 -6.093,-14.062l-0,-20.833l-7.188,-0l0,-11.875l7.188,-0l-0,-12.5l15.208,-2.5l-0,15l10.208,-0l3.334,11.875l-13.542,-0l-0,18.541c-0,2.431 0.625,4.427 1.875,5.99c1.25,1.562 3.055,2.344 5.416,2.344c0.903,-0 1.876,-0.139 2.917,-0.417c1.042,-0.278 2.084,-0.66 3.125,-1.146l4.479,10.833c-1.18,0.973 -2.916,1.806 -5.208,2.5c-2.292,0.695 -4.375,1.042 -6.25,1.042Z" style="fill:#ff0;fill-rule:nonzero;"/><path d="M419.063,64.063c1.597,-0 3.229,-0.365 4.895,-1.094c1.667,-0.729 3.264,-1.788 4.792,-3.177l0,-6.354l-8.75,-0c-2.014,-0 -3.576,0.59 -4.687,1.77c-1.112,1.181 -1.667,2.57 -1.667,4.167c-0,1.25 0.521,2.344 1.562,3.281c1.042,0.938 2.327,1.407 3.855,1.407Zm3.333,-40.938c6.319,0 11.51,1.806 15.573,5.417c4.062,3.611 6.094,8.264 6.094,13.958l-0,32.604l-7.5,0l-3.334,-4.166c-1.736,1.527 -3.871,2.812 -6.406,3.854c-2.535,1.041 -5.122,1.562 -7.76,1.562c-6.25,0 -10.886,-1.545 -13.907,-4.635c-3.021,-3.091 -4.531,-7.136 -4.531,-12.136c0,-5.277 1.788,-9.27 5.365,-11.979c3.576,-2.708 8.246,-4.062 14.01,-4.062l8.646,-0c-0.139,-2.153 -0.886,-3.854 -2.24,-5.104c-1.354,-1.25 -3.142,-1.875 -5.364,-1.875c-2.153,-0 -4.549,0.312 -7.188,0.937c-2.639,0.625 -4.93,1.389 -6.875,2.292l-4.062,-12.084c2.152,-1.25 5.243,-2.326 9.271,-3.229c4.027,-0.903 7.43,-1.354 10.208,-1.354Z" style="fill:#ff0;fill-rule:nonzero;"/><path d="M484.583,24.583l3.125,12.292c-2.361,0 -5,0.556 -7.916,1.667c-2.917,1.111 -5.695,2.812 -8.334,5.104l0,31.458l-15.312,0l-0,-50.416l7.812,-0l4.584,6.666c2.083,-1.736 4.583,-3.298 7.5,-4.687c2.916,-1.389 5.764,-2.084 8.541,-2.084Z" style="fill:#ff0;fill-rule:nonzero;"/><path d="M510.937,9.063c0,2.361 -0.85,4.357 -2.552,5.989c-1.701,1.632 -3.732,2.448 -6.093,2.448c-2.361,0 -4.341,-0.816 -5.938,-2.448c-1.597,-1.632 -2.396,-3.628 -2.396,-5.989c0,-2.362 0.799,-4.375 2.396,-6.042c1.597,-1.667 3.577,-2.5 5.938,-2.5c2.361,-0 4.392,0.833 6.093,2.5c1.702,1.667 2.552,3.68 2.552,6.042Zm-0.937,15.52l-0,50.521l-15.313,0l0,-50.521l15.313,0Z" style="fill:#ff0;fill-rule:nonzero;"/><circle cx="502.604" cy="8.75" r="8.75" style="fill:#00f;"/><path d="M539.375,64.063c1.597,-0 3.229,-0.365 4.896,-1.094c1.667,-0.729 3.264,-1.788 4.792,-3.177l-0,-6.354l-8.75,-0c-2.014,-0 -3.577,0.59 -4.688,1.77c-1.111,1.181 -1.667,2.57 -1.667,4.167c0,1.25 0.521,2.344 1.563,3.281c1.042,0.938 2.326,1.407 3.854,1.407Zm3.333,-40.938c6.32,0 11.511,1.806 15.573,5.417c4.063,3.611 6.094,8.264 6.094,13.958l0,32.604l-7.5,0l-3.333,-4.166c-1.736,1.527 -3.872,2.812 -6.407,3.854c-2.534,1.041 -5.121,1.562 -7.76,1.562c-6.25,0 -10.885,-1.545 -13.906,-4.635c-3.021,-3.091 -4.532,-7.136 -4.532,-12.136c0,-5.277 1.789,-9.27 5.365,-11.979c3.576,-2.708 8.247,-4.062 14.01,-4.062l8.646,-0c-0.139,-2.153 -0.885,-3.854 -2.239,-5.104c-1.354,-1.25 -3.143,-1.875 -5.365,-1.875c-2.153,-0 -4.548,0.312 -7.187,0.937c-2.639,0.625 -4.931,1.389 -6.875,2.292l-4.063,-12.084c2.153,-1.25 5.243,-2.326 9.271,-3.229c4.028,-0.903 7.431,-1.354 10.208,-1.354Z" style="fill:#ff0;fill-rule:nonzero;"/><path d="M606.979,22.708c6.945,0 11.893,1.997 14.844,5.99c2.951,3.993 4.427,8.941 4.427,14.844l-0,31.562l-15.313,0l0,-30.937c0,-2.778 -0.711,-4.914 -2.135,-6.407c-1.424,-1.493 -3.385,-2.239 -5.885,-2.239c-1.667,-0 -3.525,0.434 -5.573,1.302c-2.049,0.868 -3.907,1.858 -5.573,2.969l-0,35.312l-15.313,0l0,-50.521l7.917,0l4.062,5.105c2.223,-1.945 5.07,-3.594 8.542,-4.948c3.472,-1.355 6.806,-2.032 10,-2.032Z" style="fill:#ff0;fill-rule:nonzero;"/><path d="M649.583,66.875c0,2.361 -0.781,4.323 -2.343,5.885c-1.563,1.563 -3.49,2.344 -5.782,2.344c-2.361,0 -4.34,-0.781 -5.937,-2.344c-1.597,-1.562 -2.396,-3.524 -2.396,-5.885c0,-2.361 0.799,-4.323 2.396,-5.885c1.597,-1.563 3.576,-2.344 5.937,-2.344c2.292,-0 4.219,0.781 5.782,2.344c1.562,1.562 2.343,3.524 2.343,5.885Z" style="fill:#00f;fill-rule:nonzero;"/><path d="M681.771,23.125c8.333,0 14.948,2.413 19.844,7.24c4.895,4.826 7.343,11.441 7.343,19.843c0,8.195 -2.604,14.584 -7.812,19.167c-5.209,4.583 -11.91,6.875 -20.104,6.875c-8.056,-0 -14.462,-2.326 -19.219,-6.979c-4.757,-4.653 -7.135,-11.181 -7.135,-19.583c-0,-8.264 2.5,-14.757 7.5,-19.48c5,-4.722 11.527,-7.083 19.583,-7.083Zm-0.521,40.313c3.542,-0.001 6.406,-1.06 8.594,-3.178c2.187,-2.118 3.281,-5.468 3.281,-10.052c0,-4.305 -0.972,-7.76 -2.917,-10.364c-1.944,-2.604 -4.687,-3.906 -8.229,-3.906c-3.541,-0 -6.337,1.145 -8.385,3.437c-2.049,2.292 -3.073,5.694 -3.073,10.208c-0,4.445 0.903,7.865 2.708,10.261c1.806,2.396 4.479,3.593 8.021,3.593Z" style="fill:#00f;fill-rule:nonzero;"/><path d="M747.708,24.583l3.125,12.292c-2.361,0 -5,0.556 -7.916,1.667c-2.917,1.111 -5.695,2.812 -8.334,5.104l0,31.458l-15.312,0l-0,-50.416l7.812,-0l4.584,6.666c2.083,-1.736 4.583,-3.298 7.5,-4.687c2.916,-1.389 5.764,-2.084 8.541,-2.084Z" style="fill:#00f;fill-rule:nonzero;"/><path d="M771.146,49.583c-0,3.681 0.833,6.927 2.5,9.74c1.666,2.812 4.687,4.219 9.062,4.219c1.32,-0 2.795,-0.295 4.427,-0.886c1.632,-0.59 3.108,-1.267 4.427,-2.031l0,-21.562c-1.388,-0.973 -2.916,-1.806 -4.583,-2.5c-1.667,-0.695 -3.229,-1.042 -4.687,-1.042c-4.167,-0 -7.066,1.545 -8.698,4.635c-1.632,3.091 -2.448,6.233 -2.448,9.427Zm35.729,-24.895l-0,50.416c-0,6.528 -2.17,11.806 -6.51,15.833c-4.341,4.028 -10.99,6.042 -19.948,6.042c-2.153,0 -5.313,-0.486 -9.48,-1.458c-4.166,-0.972 -7.673,-2.431 -10.52,-4.375l4.583,-10.729c3.194,1.527 5.903,2.621 8.125,3.281c2.222,0.66 4.549,0.989 6.979,0.99c3.75,-0.001 6.597,-0.851 8.542,-2.553c1.944,-1.701 2.916,-4.01 2.916,-6.927l0,-2.291c-1.944,1.041 -4.027,1.857 -6.25,2.448c-2.222,0.59 -4.409,0.885 -6.562,0.885c-7.639,-0 -13.438,-2.535 -17.396,-7.604c-3.958,-5.07 -5.937,-11.389 -5.937,-18.958c-0,-7.639 2.048,-14.046 6.145,-19.219c4.098,-5.174 10.07,-7.761 17.917,-7.761c2.57,0 5.382,0.573 8.438,1.719c3.055,1.146 5.694,2.622 7.916,4.427l3.229,-4.166l7.813,-0Z" style="fill:#00f;fill-rule:nonzero;"/></g></svg>