<svg width="24px" height="24px" viewBox="0 0 24 24" fill="none" xmlns="http://www.w3.org/2000/svg">
<path fill-rule="evenodd" clip-rule="evenodd" d="M1.5 12C1.5 6.20101 6.20101 1.5 12 1.5C17.799 1.5 22.5 6.20101 22.5 12C22.5 17.799 17.799 22.5 12 22.5C6.20101 22.5 1.5 17.799 1.5 12ZM12.5303 8.78033C12.8232 8.48744 12.8232 8.01256 12.5303 7.71967C12.2374 7.42678 11.7626 7.42678 11.4697 7.71967L7.71967 11.4697C7.42678 11.7626 7.42678 12.2374 7.71967 12.5303L11.4697 16.2803C11.7626 16.5732 12.2374 16.5732 12.5303 16.2803C12.8232 15.9874 12.8232 15.5126 12.5303 15.2197L10.0607 12.75H15.75C16.1642 12.75 16.5 12.4142 16.5 12C16.5 11.5858 16.1642 11.25 15.75 11.25H10.0607L12.5303 8.78033Z" fill="#577BC1"/>
</svg>
